# xmcd CD database file
#
# Track frame offsets:
#	150
#	17525
#	37985
#	56242
#	79252
#
# Disc length: 1398 seconds
#
# Revision: 1
# Processed by: cddbd v1.5.2PL0 Copyright (c) Steve Scherf et al.
# Submitted via: CDex 1.51
#
DISCID=35057405
DTITLE=Jesus Jones - THE DEVIL YOU KNOW
DYEAR=1993
DGENRE=Rock
TTITLE0=THE DEVIL YOU KNOW
TTITLE1=THE DEVIL YOU KNOW (ALBUM VERSION)
TTITLE2=WANT TO KNOW (KNOWLEDGE MIX)
TTITLE3=THE DEVIL YOU KNOW (KIDNEY MIX)
TTITLE4=THE DEVIL YOU KNOW (SATELLITE OVER TEHRAN MIX)
EXTD=YEAR: 1993
EXTT0=
EXTT1=
EXTT2=
EXTT3=
EXTT4=
PLAYORDER=
